<?xml version="1.0" encoding="UTF-8" standalone="no"?>
<!-- Created with Inkscape (http://www.inkscape.org/) -->

<svg
   width="191.6895mm"
   height="191.61133mm"
   viewBox="0 0 191.6895 191.61133"
   version="1.1"
   id="svg5"
   xml:space="preserve"
   inkscape:export-filename="avatar.svg"
   inkscape:export-xdpi="96"
   inkscape:export-ydpi="96"
   xmlns:inkscape="http://www.inkscape.org/namespaces/inkscape"
   xmlns:sodipodi="http://sodipodi.sourceforge.net/DTD/sodipodi-0.dtd"
   xmlns="http://www.w3.org/2000/svg"
   xmlns:svg="http://www.w3.org/2000/svg"><sodipodi:namedview
     id="namedview7"
     pagecolor="#505050"
     bordercolor="#eeeeee"
     borderopacity="1"
     inkscape:showpageshadow="0"
     inkscape:pageopacity="0"
     inkscape:pagecheckerboard="0"
     inkscape:deskcolor="#505050"
     inkscape:document-units="mm"
     showgrid="false" /><defs
     id="defs2" /><g
     inkscape:label="图层 1"
     inkscape:groupmode="layer"
     id="layer1"
     transform="translate(-10.648183,-75.131056)"><path
       style="fill:#000000;stroke-width:0.384584"
       d="M 93.71046,266.23816 C 82.519419,264.66173 70.317157,260.73882 61.277542,255.81133 34.34605,241.13096 16.194284,215.32588 11.54244,185.10645 10.536962,178.57463 10.337183,165.0417 11.159215,159.14701 14.326592,136.43412 24.373261,116.62411 40.502557,101.28782 55.069279,87.437268 72.960322,78.877472 93.71046,75.830981 c 6.33423,-0.929965 19.38415,-0.93405 25.76715,-0.0073 21.24746,3.082437 39.37817,12.081917 54.56133,27.082429 15.63751,15.44941 25.18262,35.02153 27.73949,56.87951 0.65707,5.61714 0.75315,16.34734 0.1923,21.47575 -1.97072,18.02033 -9.42643,35.9818 -20.76983,50.03634 -3.40961,4.22453 -11.88753,12.60797 -15.57315,15.39958 -13.37998,10.13446 -26.92264,16.12938 -42.93054,19.00405 -6.1188,1.09881 -22.80574,1.40828 -28.98675,0.53758 z m 23.84424,-5.60784 c 15.66317,-1.94279 30.6813,-8.03915 43.46487,-17.64391 4.92834,-3.70282 13.40475,-12.16391 17.21778,-17.18667 20.8926,-27.52098 24.4579,-63.69395 9.31762,-94.53512 C 178.77438,113.37833 164.95017,99.428803 146.99,90.331994 125.72845,79.563037 100.87083,77.740187 78.134787,85.282747 46.165651,95.888325 23.127052,122.83191 17.277721,156.45491 c -1.132192,6.50804 -1.224328,20.9702 -0.17641,27.69008 3.298643,21.15293 12.942106,39.16658 28.728379,53.66364 14.707237,13.50613 34.435733,21.96806 54.22641,23.25871 5.01328,0.32695 12.93416,0.12908 17.4986,-0.43702 z m -2.11521,-14.12145 c -1.3749,-0.81014 -6.3606,-3.60002 -11.07935,-6.19975 -6.82187,-3.75843 -8.52921,-4.85474 -8.33387,-5.35132 0.13512,-0.34349 5.01084,-13.34467 10.83494,-28.8915 5.82411,-15.54682 10.73726,-28.52655 10.91812,-28.84383 0.18392,-0.32263 0.334,15.14361 0.34056,35.09333 0.006,19.61862 -0.0315,35.66928 -0.0845,35.66811 -0.0529,-0.001 -1.22106,-0.66492 -2.59594,-1.47504 z M 95.36236,216.73853 C 93.53868,214.78195 82.804108,203.48959 71.507761,191.64439 L 50.96895,170.10766 84.22764,170.0094 c 18.29228,-0.0541 33.33068,-0.0263 33.41868,0.0618 0.0879,0.0879 -1.33612,4.19922 -3.16471,9.13603 -9.70173,26.19273 -15.34277,41.08883 -15.56002,41.08883 -0.13389,0 -1.73555,-1.60084 -3.55923,-3.55742 z m -5.288701,-49.12411 -15.558919,-0.19885 18.61344,-19.9984 c 10.2374,-10.99911 20.05117,-21.54704 21.80842,-23.43982 l 3.19497,-3.44145 v 23.72828 23.72826 l -6.2495,-0.0895 c -3.43722,-0.0493 -13.25101,-0.17907 -21.808411,-0.28844 z m -40.97009,-16.25526 c -0.152852,-8.93677 -0.216489,-16.76788 -0.141416,-17.40244 l 0.136503,-1.15375 h 5.36913 5.369133 l 10.474113,11.53753 c 5.76076,6.34564 10.483503,11.76545 10.49498,12.04404 0.01148,0.27857 -2.171322,2.91778 -4.850664,5.86491 l -4.871524,5.35841 H 60.232656 49.381486 Z m 71.148091,-8.61093 c 0.15386,-12.66162 0.33699,-23.08474 0.40698,-23.16249 0.0699,-0.0778 10.76872,0.009 23.77501,0.19231 l 23.64776,0.33363 -18.29723,17.49859 c -10.06347,9.62423 -20.63197,19.74841 -23.48553,22.49819 -2.85358,2.74978 -5.44445,5.14839 -5.75752,5.33026 -0.50118,0.29113 -0.53578,-2.42025 -0.28947,-22.69049 z m -83.406454,0.91925 c 1.226749,-1.11049 3.966438,-3.60355 6.088198,-5.54012 l 3.857748,-3.52106 0.243487,2.3673 c 0.133915,1.30202 0.263714,3.79507 0.288437,5.54013 l 0.04496,3.17282 h -6.376642 -6.376638 z m 119.342144,-8.68836 7.48132,-7.29883 2.1333,0.76343 c 3.83157,1.37118 4.24112,1.56025 4.04988,1.86969 -0.18011,0.29143 -1.76784,1.20817 -12.30037,7.1022 -9.77264,5.46879 -9.66468,5.6616 -1.36413,-2.43649 z"
       id="path179" /></g></svg>
