<?xml version="1.0" encoding="UTF-8" standalone="no"?>
<!-- Created with Inkscape (http://www.inkscape.org/) -->

<svg
   width="135.27513mm"
   height="128.42671mm"
   viewBox="0 0 135.27513 128.42671"
   version="1.1"
   id="svg5"
   xml:space="preserve"
   xmlns="http://www.w3.org/2000/svg"
   xmlns:svg="http://www.w3.org/2000/svg"><defs
     id="defs2" /><g
     id="layer1"
     transform="translate(-27.739813,-103.58958)"><path
       id="path903"
       style="fill:#000000;stroke-width:0.384584"
       d="m 108.56454,230.54125 c -1.3749,-0.81014 -6.3606,-3.60002 -11.079347,-6.19975 -6.821866,-3.75843 -8.529206,-4.85474 -8.333866,-5.35132 0.13512,-0.34349 5.010836,-13.34467 10.834936,-28.8915 5.824107,-15.54682 10.737257,-28.52655 10.918117,-28.84383 0.18392,-0.32263 0.334,15.14361 0.34056,35.09333 0.006,19.61862 -0.0315,35.66928 -0.0845,35.66811 -0.0529,-0.001 -1.22106,-0.66492 -2.59594,-1.47504 z M 88.487417,200.77091 c -1.82368,-1.95658 -12.558252,-13.24894 -23.854599,-25.09414 l -20.538811,-21.53673 33.25869,-0.0983 c 18.292276,-0.0541 33.330673,-0.0263 33.418673,0.0618 0.0879,0.0879 -1.33612,4.19922 -3.16471,9.13603 -9.701727,26.19273 -15.342767,41.08883 -15.560017,41.08883 -0.13389,0 -1.735546,-1.60084 -3.559226,-3.55742 z m -5.288701,-49.12411 -15.558919,-0.19885 18.61344,-19.9984 C 96.490633,120.45044 106.3044,109.90251 108.06165,108.00973 l 3.19497,-3.44144 v 23.72827 23.72826 l -6.2495,-0.0895 c -3.43722,-0.0493 -13.251007,-0.17907 -21.808404,-0.28844 z M 42.228626,135.39154 C 42.075774,126.45477 42.012137,118.62366 42.08721,117.9891 l 0.136503,-1.15375 h 5.36913 5.369133 l 10.474113,11.53753 c 5.76076,6.34564 10.483503,11.76545 10.49498,12.04404 0.01148,0.27857 -2.171322,2.91778 -4.850664,5.86491 l -4.871524,5.35841 H 53.357713 42.506543 Z m 71.148084,-8.61093 c 0.15386,-12.66162 0.33699,-23.08473 0.40698,-23.16248 0.0699,-0.0778 10.76872,0.009 23.77501,0.19231 l 23.64776,0.33363 -18.29723,17.49858 c -10.06347,9.62423 -20.63197,19.74841 -23.48553,22.49819 -2.85358,2.74978 -5.44445,5.14839 -5.75752,5.33026 -0.50118,0.29113 -0.53578,-2.42025 -0.28947,-22.69049 z m -83.406447,0.91925 c 1.226749,-1.11049 3.966438,-3.60355 6.088198,-5.54012 l 3.857748,-3.52106 0.243487,2.3673 c 0.133915,1.30202 0.263714,3.79507 0.288437,5.54013 l 0.04496,3.17282 h -6.376642 -6.376638 z m 119.342137,-8.68836 7.48132,-7.29883 2.1333,0.76343 c 3.83157,1.37118 4.24112,1.56025 4.04988,1.86969 -0.18011,0.29143 -1.76784,1.20817 -12.30037,7.1022 -9.77264,5.46879 -9.66468,5.6616 -1.36413,-2.43649 z" /></g></svg>
